<mxfile host="app.diagrams.net" agent="Mozilla/5.0 (Windows NT 10.0; Win64; x64) AppleWebKit/537.36 (KHTML, like Gecko) Chrome/137.0.0.0 Safari/537.36" version="27.1.6">
  <diagram name="Class Diagram" id="G7PMMjIdobL-4O-ksS-Q">
    <mxGraphModel dx="1971" dy="1788" grid="1" gridSize="10" guides="1" tooltips="1" connect="1" arrows="1" fold="1" page="1" pageScale="1" pageWidth="827" pageHeight="1169" math="0" shadow="0">
      <root>
        <mxCell id="0" />
        <mxCell id="1" parent="0" />
        <mxCell id="6Eb1eWpuqPmglA29qz08-72" style="edgeStyle=orthogonalEdgeStyle;rounded=0;orthogonalLoop=1;jettySize=auto;html=1;exitX=0.25;exitY=0;exitDx=0;exitDy=0;entryX=0;entryY=0.75;entryDx=0;entryDy=0;fontFamily=Helvetica;fontSize=12;fontColor=default;dashed=1;endArrow=block;endFill=0;" edge="1" parent="1" source="6Eb1eWpuqPmglA29qz08-1" target="6Eb1eWpuqPmglA29qz08-50">
          <mxGeometry relative="1" as="geometry" />
        </mxCell>
        <mxCell id="6Eb1eWpuqPmglA29qz08-1" value="" style="rounded=1;whiteSpace=wrap;html=1;fillColor=#D5E8D4;strokeColor=#82B366;" vertex="1" parent="1">
          <mxGeometry x="-140" y="210" width="200" height="320" as="geometry" />
        </mxCell>
        <mxCell id="6Eb1eWpuqPmglA29qz08-2" value="&lt;div&gt;&lt;font style=&quot;vertical-align: inherit;&quot;&gt;&lt;font style=&quot;vertical-align: inherit;&quot;&gt;&lt;font style=&quot;vertical-align: inherit;&quot;&gt;&lt;font style=&quot;vertical-align: inherit;&quot;&gt;&lt;font style=&quot;vertical-align: inherit;&quot;&gt;&lt;font style=&quot;vertical-align: inherit;&quot;&gt;&lt;font style=&quot;vertical-align: inherit;&quot;&gt;&lt;font style=&quot;vertical-align: inherit;&quot;&gt;Movie&lt;/font&gt;&lt;/font&gt;&lt;/font&gt;&lt;/font&gt;&lt;/font&gt;&lt;/font&gt;&lt;/font&gt;&lt;/font&gt;&lt;/div&gt;&lt;div&gt;&lt;font style=&quot;vertical-align: inherit;&quot;&gt;&lt;font style=&quot;vertical-align: inherit;&quot;&gt;&lt;font style=&quot;vertical-align: inherit;&quot;&gt;&lt;font style=&quot;vertical-align: inherit;&quot;&gt;&lt;font style=&quot;vertical-align: inherit;&quot;&gt;&lt;font style=&quot;vertical-align: inherit;&quot;&gt;&lt;font style=&quot;vertical-align: inherit;&quot;&gt;&lt;font style=&quot;vertical-align: inherit;&quot;&gt;&lt;br&gt;&lt;/font&gt;&lt;/font&gt;&lt;/font&gt;&lt;/font&gt;&lt;/font&gt;&lt;/font&gt;&lt;/font&gt;&lt;/font&gt;&lt;/div&gt;&lt;font style=&quot;vertical-align: inherit;&quot;&gt;&lt;font style=&quot;vertical-align: inherit;&quot;&gt;&lt;font style=&quot;vertical-align: inherit;&quot;&gt;&lt;font style=&quot;vertical-align: inherit;&quot;&gt;&lt;font style=&quot;vertical-align: inherit;&quot;&gt;&lt;font style=&quot;vertical-align: inherit;&quot;&gt;- title: String&lt;/font&gt;&lt;/font&gt;&lt;/font&gt;&lt;/font&gt;&lt;/font&gt;&lt;/font&gt;&lt;div&gt;&lt;font style=&quot;vertical-align: inherit;&quot;&gt;&lt;font style=&quot;vertical-align: inherit;&quot;&gt;&lt;font style=&quot;vertical-align: inherit;&quot;&gt;&lt;font style=&quot;vertical-align: inherit;&quot;&gt;&lt;font style=&quot;vertical-align: inherit;&quot;&gt;&lt;font style=&quot;vertical-align: inherit;&quot;&gt;- author: String&lt;/font&gt;&lt;/font&gt;&lt;/font&gt;&lt;/font&gt;&lt;/font&gt;&lt;/font&gt;&lt;/div&gt;&lt;div&gt;&lt;font style=&quot;vertical-align: inherit;&quot;&gt;&lt;font style=&quot;vertical-align: inherit;&quot;&gt;&lt;font style=&quot;vertical-align: inherit;&quot;&gt;&lt;font style=&quot;vertical-align: inherit;&quot;&gt;&lt;font style=&quot;vertical-align: inherit;&quot;&gt;&lt;font style=&quot;vertical-align: inherit;&quot;&gt;- year: int&lt;/font&gt;&lt;/font&gt;&lt;/font&gt;&lt;/font&gt;&lt;/font&gt;&lt;/font&gt;&lt;/div&gt;&lt;div&gt;&lt;font style=&quot;vertical-align: inherit;&quot;&gt;&lt;font style=&quot;vertical-align: inherit;&quot;&gt;&lt;font style=&quot;vertical-align: inherit;&quot;&gt;&lt;font style=&quot;vertical-align: inherit;&quot;&gt;&lt;font style=&quot;vertical-align: inherit;&quot;&gt;&lt;font style=&quot;vertical-align: inherit;&quot;&gt;- genre: String&lt;/font&gt;&lt;/font&gt;&lt;/font&gt;&lt;/font&gt;&lt;/font&gt;&lt;/font&gt;&lt;/div&gt;&lt;div&gt;&lt;font style=&quot;vertical-align: inherit;&quot;&gt;&lt;font style=&quot;vertical-align: inherit;&quot;&gt;&lt;font style=&quot;vertical-align: inherit;&quot;&gt;&lt;font style=&quot;vertical-align: inherit;&quot;&gt;&lt;font style=&quot;vertical-align: inherit;&quot;&gt;&lt;font style=&quot;vertical-align: inherit;&quot;&gt;- prohibition: String&lt;/font&gt;&lt;/font&gt;&lt;/font&gt;&lt;/font&gt;&lt;/font&gt;&lt;/font&gt;&lt;/div&gt;&lt;div&gt;&lt;font style=&quot;vertical-align: inherit;&quot;&gt;&lt;font style=&quot;vertical-align: inherit;&quot;&gt;&lt;font style=&quot;vertical-align: inherit;&quot;&gt;&lt;font style=&quot;vertical-align: inherit;&quot;&gt;&lt;font style=&quot;vertical-align: inherit;&quot;&gt;&lt;font style=&quot;vertical-align: inherit;&quot;&gt;&lt;br&gt;&lt;/font&gt;&lt;/font&gt;&lt;/font&gt;&lt;/font&gt;&lt;/font&gt;&lt;/font&gt;&lt;/div&gt;&lt;div&gt;&lt;font style=&quot;vertical-align: inherit;&quot;&gt;&lt;font style=&quot;vertical-align: inherit;&quot;&gt;&lt;font style=&quot;vertical-align: inherit;&quot;&gt;&lt;font style=&quot;vertical-align: inherit;&quot;&gt;&lt;font style=&quot;vertical-align: inherit;&quot;&gt;&lt;font style=&quot;vertical-align: inherit;&quot;&gt;&lt;div&gt;+ Movie(title: String,&lt;/div&gt;&lt;div&gt;&amp;nbsp; &amp;nbsp;author: String,&lt;/div&gt;&lt;div&gt;&amp;nbsp; &amp;nbsp;year: int,&lt;/div&gt;&lt;div&gt;&amp;nbsp; &amp;nbsp;genre: String,&lt;/div&gt;&lt;div&gt;&amp;nbsp; &amp;nbsp;prohibition: String)&lt;/div&gt;&lt;div&gt;+ getTitle(): String&lt;/div&gt;&lt;div&gt;+ getAuthor(): String&lt;/div&gt;&lt;div&gt;+ getYear(): int&lt;/div&gt;&lt;div&gt;+ getGenre(): String&lt;/div&gt;&lt;div&gt;+ getProhibition(): String&lt;/div&gt;&lt;div&gt;+ toString(): String&lt;/div&gt;&lt;/font&gt;&lt;/font&gt;&lt;/font&gt;&lt;/font&gt;&lt;/font&gt;&lt;/font&gt;&lt;/div&gt;" style="text;html=1;strokeColor=none;fillColor=none;align=left;verticalAlign=top;spacingLeft=10;spacingTop=5;" vertex="1" parent="6Eb1eWpuqPmglA29qz08-1">
          <mxGeometry width="64.00000000000001" height="98.46153846153844" as="geometry" />
        </mxCell>
        <mxCell id="6Eb1eWpuqPmglA29qz08-4" value="" style="rounded=1;whiteSpace=wrap;html=1;fillColor=#D5E8D4;strokeColor=#82B366;" vertex="1" parent="1">
          <mxGeometry x="110" y="210" width="160" height="340" as="geometry" />
        </mxCell>
        <mxCell id="6Eb1eWpuqPmglA29qz08-5" value="Song&lt;div&gt;&lt;br&gt;&lt;/div&gt;&lt;div&gt;&lt;font style=&quot;vertical-align: inherit;&quot;&gt;- title: String&lt;/font&gt;&lt;div&gt;&lt;font style=&quot;vertical-align: inherit;&quot;&gt;- author: String&lt;/font&gt;&lt;/div&gt;&lt;div&gt;&lt;font style=&quot;vertical-align: inherit;&quot;&gt;- year: int&lt;/font&gt;&lt;/div&gt;&lt;div&gt;&lt;font style=&quot;vertical-align: inherit;&quot;&gt;- genre: String&lt;/font&gt;&lt;/div&gt;&lt;/div&gt;&lt;div&gt;- album: String&lt;/div&gt;&lt;div&gt;&lt;br&gt;&lt;/div&gt;&lt;div&gt;&lt;div&gt;+ Song(title: String,&lt;/div&gt;&lt;div&gt;&amp;nbsp; author: String,&lt;/div&gt;&lt;div&gt;&amp;nbsp; year: int,&lt;/div&gt;&lt;div&gt;&amp;nbsp; genre: String,&lt;/div&gt;&lt;div&gt;&amp;nbsp; album: String)&lt;/div&gt;&lt;div&gt;+ getTitle(): String&lt;/div&gt;&lt;div&gt;+ getAuthor(): String&lt;/div&gt;&lt;div&gt;+ getYear(): int&lt;/div&gt;&lt;div&gt;+ getGenre(): String&lt;/div&gt;&lt;div&gt;+ getAlbum(): String&lt;/div&gt;&lt;div&gt;+ getProhibition(): String&lt;/div&gt;&lt;div&gt;+ toString(): String&amp;nbsp;&amp;nbsp;&lt;/div&gt;&lt;/div&gt;" style="text;html=1;strokeColor=none;fillColor=none;align=left;verticalAlign=top;spacingLeft=10;spacingTop=5;" vertex="1" parent="6Eb1eWpuqPmglA29qz08-4">
          <mxGeometry y="6.9215384615384625" width="160" height="104.61538461538461" as="geometry" />
        </mxCell>
        <mxCell id="6Eb1eWpuqPmglA29qz08-7" value="" style="rounded=1;whiteSpace=wrap;html=1;fillColor=#D5E8D4;strokeColor=#82B366;" vertex="1" parent="1">
          <mxGeometry x="580" y="220" width="210" height="370" as="geometry" />
        </mxCell>
        <mxCell id="6Eb1eWpuqPmglA29qz08-8" value="Game&lt;div&gt;&lt;br&gt;&lt;div&gt;&lt;font style=&quot;vertical-align: inherit;&quot;&gt;- title: String&lt;/font&gt;&lt;div&gt;&lt;font style=&quot;vertical-align: inherit;&quot;&gt;- author: String&lt;/font&gt;&lt;/div&gt;&lt;div&gt;&lt;font style=&quot;vertical-align: inherit;&quot;&gt;- year: int&lt;/font&gt;&lt;/div&gt;&lt;div&gt;&lt;font style=&quot;vertical-align: inherit;&quot;&gt;- genre: String&lt;/font&gt;&lt;/div&gt;&lt;div&gt;&lt;font style=&quot;vertical-align: inherit;&quot;&gt;- prohibition: String&lt;/font&gt;&lt;/div&gt;&lt;/div&gt;&lt;div&gt;&lt;font style=&quot;vertical-align: inherit;&quot;&gt;- console: String&lt;/font&gt;&lt;/div&gt;&lt;/div&gt;&lt;div&gt;&lt;font style=&quot;vertical-align: inherit;&quot;&gt;&lt;br&gt;&lt;/font&gt;&lt;/div&gt;&lt;div&gt;&lt;font style=&quot;vertical-align: inherit;&quot;&gt;&lt;div&gt;+ Game(title: String,&lt;/div&gt;&lt;div&gt;&amp;nbsp; &amp;nbsp;author: String,&lt;/div&gt;&lt;div&gt;&amp;nbsp; &amp;nbsp;year: int,&lt;/div&gt;&lt;div&gt;&amp;nbsp; &amp;nbsp;genre: String,&lt;/div&gt;&lt;div&gt;&amp;nbsp; &amp;nbsp;console: String,&lt;/div&gt;&lt;div&gt;&lt;span style=&quot;background-color: transparent; color: light-dark(rgb(0, 0, 0), rgb(255, 255, 255));&quot;&gt;&amp;nbsp; &amp;nbsp;prohibition: String)&lt;/span&gt;&lt;/div&gt;&lt;div&gt;&lt;span style=&quot;background-color: transparent; color: light-dark(rgb(0, 0, 0), rgb(255, 255, 255));&quot;&gt;&lt;br&gt;&lt;/span&gt;&lt;/div&gt;&lt;div&gt;&amp;nbsp;+ getTitle(): String&lt;/div&gt;&lt;div&gt;&amp;nbsp;+ getAuthor(): String&lt;/div&gt;&lt;div&gt;&lt;span style=&quot;background-color: transparent; color: light-dark(rgb(0, 0, 0), rgb(255, 255, 255));&quot;&gt;&amp;nbsp;+ getYear(): int&lt;/span&gt;&lt;/div&gt;&lt;div&gt;&amp;nbsp;+ getGenre(): String&lt;/div&gt;&lt;div&gt;&amp;nbsp;+ getProhibition(): String&lt;/div&gt;&lt;div&gt;&amp;nbsp;+ getConsole(): String&lt;/div&gt;&lt;div&gt;&amp;nbsp;+ toString(): String&amp;nbsp;&lt;/div&gt;&lt;/font&gt;&lt;/div&gt;" style="text;html=1;strokeColor=none;fillColor=none;align=left;verticalAlign=top;spacingLeft=10;spacingTop=5;" vertex="1" parent="6Eb1eWpuqPmglA29qz08-7">
          <mxGeometry width="210" height="113.84615384615384" as="geometry" />
        </mxCell>
        <mxCell id="6Eb1eWpuqPmglA29qz08-10" value="" style="rounded=1;whiteSpace=wrap;html=1;fillColor=#D5E8D4;strokeColor=#82B366;" vertex="1" parent="1">
          <mxGeometry x="340" y="220" width="160" height="330" as="geometry" />
        </mxCell>
        <mxCell id="6Eb1eWpuqPmglA29qz08-11" value="&lt;div&gt;Podcast&lt;/div&gt;&lt;div&gt;&lt;br&gt;&lt;/div&gt;&lt;div&gt;&lt;font style=&quot;vertical-align: inherit;&quot;&gt;- title: String&lt;/font&gt;&lt;div&gt;&lt;font style=&quot;vertical-align: inherit;&quot;&gt;- author: String&lt;/font&gt;&lt;/div&gt;&lt;div&gt;&lt;font style=&quot;vertical-align: inherit;&quot;&gt;- year: int&lt;/font&gt;&lt;/div&gt;&lt;div&gt;&lt;font style=&quot;vertical-align: inherit;&quot;&gt;- genre: String&lt;/font&gt;&lt;/div&gt;&lt;div&gt;&lt;br&gt;&lt;/div&gt;&lt;/div&gt;&lt;div&gt;&lt;div&gt;+ Podcast(title: String,&lt;/div&gt;&lt;div&gt;&amp;nbsp; &amp;nbsp;author: String,&lt;/div&gt;&lt;div&gt;&amp;nbsp; &amp;nbsp;year: int,&lt;/div&gt;&lt;div&gt;&amp;nbsp; &amp;nbsp;genre: String)&lt;/div&gt;&lt;div&gt;+ getTitle(): String&lt;/div&gt;&lt;div&gt;+ getAuthor(): String&lt;/div&gt;&lt;div&gt;+ getYear(): int&lt;/div&gt;&lt;div&gt;+ getGenre(): String&lt;/div&gt;&lt;div&gt;+ getProhibition(): String&lt;/div&gt;&lt;div&gt;+ toString(): String&amp;nbsp;&lt;/div&gt;&lt;/div&gt;" style="text;html=1;strokeColor=none;fillColor=none;align=left;verticalAlign=top;spacingLeft=10;spacingTop=5;" vertex="1" parent="6Eb1eWpuqPmglA29qz08-10">
          <mxGeometry y="0.0014932126696946318" width="160" height="101.53846153846153" as="geometry" />
        </mxCell>
        <mxCell id="6Eb1eWpuqPmglA29qz08-13" value="&lt;div style=&quot;&quot;&gt;&lt;br&gt;&lt;/div&gt;" style="rounded=1;whiteSpace=wrap;html=1;fillColor=light-dark(#FFF2CC,#003300);strokeColor=light-dark(#D6B656,#4D9900);align=center;" vertex="1" parent="1">
          <mxGeometry y="-500" width="230" height="240" as="geometry" />
        </mxCell>
        <mxCell id="6Eb1eWpuqPmglA29qz08-14" value="&lt;font style=&quot;vertical-align: inherit;&quot;&gt;&lt;font style=&quot;vertical-align: inherit;&quot;&gt;&lt;font style=&quot;vertical-align: inherit;&quot;&gt;&lt;font style=&quot;vertical-align: inherit;&quot;&gt;&lt;font style=&quot;vertical-align: inherit;&quot;&gt;&lt;font style=&quot;vertical-align: inherit;&quot;&gt;MediaLibrary&lt;/font&gt;&lt;/font&gt;&lt;/font&gt;&lt;/font&gt;&lt;/font&gt;&lt;/font&gt;&lt;div&gt;&lt;font style=&quot;vertical-align: inherit;&quot;&gt;&lt;font style=&quot;vertical-align: inherit;&quot;&gt;&lt;font style=&quot;vertical-align: inherit;&quot;&gt;&lt;font style=&quot;vertical-align: inherit;&quot;&gt;&lt;br&gt;&lt;/font&gt;&lt;/font&gt;&lt;/font&gt;&lt;/font&gt;&lt;/div&gt;&lt;div&gt;&lt;font style=&quot;vertical-align: inherit;&quot;&gt;&lt;font style=&quot;vertical-align: inherit;&quot;&gt;&lt;font style=&quot;vertical-align: inherit;&quot;&gt;&lt;font style=&quot;vertical-align: inherit;&quot;&gt;- mediaItems: List&lt;/font&gt;&lt;/font&gt;&lt;/font&gt;&lt;/font&gt;&lt;/div&gt;" style="text;html=1;strokeColor=none;fillColor=none;align=left;verticalAlign=top;spacingLeft=10;spacingTop=5;" vertex="1" parent="6Eb1eWpuqPmglA29qz08-13">
          <mxGeometry y="8.278408488063656" width="230.00000000000003" height="73.84615384615383" as="geometry" />
        </mxCell>
        <mxCell id="6Eb1eWpuqPmglA29qz08-15" value="&lt;div&gt;+ addMedia(media: Media): void&lt;/div&gt;&lt;div&gt;+ removeMedia(media: Media): void&lt;/div&gt;&lt;div&gt;+ getMediaItems(): List&amp;lt;Media&amp;gt;&lt;/div&gt;&lt;div&gt;+ getTitle(): String&lt;/div&gt;&lt;div&gt;+ getAuthor(): String&lt;/div&gt;&lt;div&gt;+ getYear(): int&lt;/div&gt;&lt;div&gt;+ getGenre(): String&lt;/div&gt;&lt;div&gt;+ getProhibition(): String&lt;/div&gt;&lt;div&gt;+ toString(): String&lt;/div&gt;&lt;div&gt;+ saveToFile(): void&amp;nbsp; &amp;nbsp;&lt;/div&gt;" style="text;html=1;strokeColor=none;fillColor=none;align=left;verticalAlign=top;spacingLeft=10;spacingTop=5;" vertex="1" parent="6Eb1eWpuqPmglA29qz08-13">
          <mxGeometry y="66.21007957559681" width="230.00000000000003" height="147.69230769230765" as="geometry" />
        </mxCell>
        <mxCell id="6Eb1eWpuqPmglA29qz08-16" style="edgeStyle=orthogonalEdgeStyle;rounded=0;orthogonalLoop=1;jettySize=auto;html=1;exitX=0;exitY=1;exitDx=0;exitDy=0;entryX=1;entryY=0;entryDx=0;entryDy=0;strokeColor=none;" edge="1" parent="1" source="6Eb1eWpuqPmglA29qz08-17" target="6Eb1eWpuqPmglA29qz08-49">
          <mxGeometry relative="1" as="geometry" />
        </mxCell>
        <mxCell id="6Eb1eWpuqPmglA29qz08-17" value="" style="rounded=1;whiteSpace=wrap;html=1;fillColor=#F8CECC;strokeColor=#B85450;" vertex="1" parent="1">
          <mxGeometry x="550" y="-230" width="200" height="220" as="geometry" />
        </mxCell>
        <mxCell id="6Eb1eWpuqPmglA29qz08-18" value="&lt;div&gt;&lt;font style=&quot;vertical-align: inherit;&quot;&gt;&lt;font style=&quot;vertical-align: inherit;&quot;&gt;&lt;font style=&quot;vertical-align: inherit;&quot;&gt;&lt;font style=&quot;vertical-align: inherit;&quot;&gt;&lt;font style=&quot;vertical-align: inherit;&quot;&gt;&lt;font style=&quot;vertical-align: inherit;&quot;&gt;MediaPlayer&lt;/font&gt;&lt;/font&gt;&lt;/font&gt;&lt;/font&gt;&lt;/font&gt;&lt;/font&gt;&lt;/div&gt;&lt;div&gt;&lt;font style=&quot;vertical-align: inherit;&quot;&gt;&lt;font style=&quot;vertical-align: inherit;&quot;&gt;&lt;font style=&quot;vertical-align: inherit;&quot;&gt;&lt;font style=&quot;vertical-align: inherit;&quot;&gt;&lt;font style=&quot;vertical-align: inherit;&quot;&gt;&lt;font style=&quot;vertical-align: inherit;&quot;&gt;&lt;br&gt;&lt;/font&gt;&lt;/font&gt;&lt;/font&gt;&lt;/font&gt;&lt;/font&gt;&lt;/font&gt;&lt;/div&gt;&lt;font style=&quot;vertical-align: inherit;&quot;&gt;&lt;font style=&quot;vertical-align: inherit;&quot;&gt;&lt;font style=&quot;vertical-align: inherit;&quot;&gt;&lt;font style=&quot;vertical-align: inherit;&quot;&gt;- currentMedia: Media &lt;/font&gt;&lt;/font&gt;&lt;/font&gt;&lt;/font&gt;&lt;br&gt;&lt;font style=&quot;vertical-align: inherit;&quot;&gt;&lt;font style=&quot;vertical-align: inherit;&quot;&gt;&lt;font style=&quot;vertical-align: inherit;&quot;&gt;&lt;font style=&quot;vertical-align: inherit;&quot;&gt;- isPlaying: boolean&lt;/font&gt;&lt;/font&gt;&lt;/font&gt;&lt;/font&gt;&lt;div&gt;&lt;font style=&quot;vertical-align: inherit;&quot;&gt;&lt;font style=&quot;vertical-align: inherit;&quot;&gt;&lt;font style=&quot;vertical-align: inherit;&quot;&gt;&lt;font style=&quot;vertical-align: inherit;&quot;&gt;- isPaused: boolean&amp;nbsp;&lt;/font&gt;&lt;/font&gt;&lt;/font&gt;&lt;/font&gt;&lt;/div&gt;" style="text;html=1;strokeColor=none;fillColor=none;align=left;verticalAlign=top;spacingLeft=10;spacingTop=5;" vertex="1" parent="6Eb1eWpuqPmglA29qz08-17">
          <mxGeometry y="7.588541114058351" width="200" height="84.6153846153846" as="geometry" />
        </mxCell>
        <mxCell id="6Eb1eWpuqPmglA29qz08-19" value="+ play(media: Media): void&lt;br&gt;+ pause(): void&lt;br&gt;+ resume(): void&lt;br&gt;+ stop(): void&lt;br&gt;+ next(mediaList: List): void" style="text;html=1;strokeColor=none;fillColor=none;align=left;verticalAlign=top;spacingLeft=10;spacingTop=5;" vertex="1" parent="6Eb1eWpuqPmglA29qz08-17">
          <mxGeometry y="109.99586206896552" width="200" height="98.62068965517243" as="geometry" />
        </mxCell>
        <mxCell id="6Eb1eWpuqPmglA29qz08-20" value="" style="rounded=1;whiteSpace=wrap;html=1;fillColor=#DAE8FC;strokeColor=#6C8EBF;" vertex="1" parent="1">
          <mxGeometry x="-810" y="-440" width="290" height="280" as="geometry" />
        </mxCell>
        <mxCell id="6Eb1eWpuqPmglA29qz08-21" value="&lt;div&gt;&lt;font style=&quot;vertical-align: inherit;&quot;&gt;&lt;font style=&quot;vertical-align: inherit;&quot;&gt;&lt;font style=&quot;vertical-align: inherit;&quot;&gt;&lt;font style=&quot;vertical-align: inherit;&quot;&gt;&lt;font style=&quot;vertical-align: inherit;&quot;&gt;&lt;font style=&quot;vertical-align: inherit;&quot;&gt;&lt;font style=&quot;vertical-align: inherit;&quot;&gt;&lt;font style=&quot;vertical-align: inherit;&quot;&gt;User&lt;/font&gt;&lt;/font&gt;&lt;/font&gt;&lt;/font&gt;&lt;/font&gt;&lt;/font&gt;&lt;/font&gt;&lt;/font&gt;&lt;/div&gt;&lt;font style=&quot;vertical-align: inherit;&quot;&gt;&lt;font style=&quot;vertical-align: inherit;&quot;&gt;&lt;font style=&quot;vertical-align: inherit;&quot;&gt;&lt;font style=&quot;vertical-align: inherit;&quot;&gt;&lt;font style=&quot;vertical-align: inherit;&quot;&gt;&lt;font style=&quot;vertical-align: inherit;&quot;&gt;&lt;div&gt;&lt;font style=&quot;vertical-align: inherit;&quot;&gt;&lt;font style=&quot;vertical-align: inherit;&quot;&gt;&lt;font style=&quot;vertical-align: inherit;&quot;&gt;&lt;font style=&quot;vertical-align: inherit;&quot;&gt;&lt;font style=&quot;vertical-align: inherit;&quot;&gt;&lt;font style=&quot;vertical-align: inherit;&quot;&gt;&lt;br&gt;&lt;/font&gt;&lt;/font&gt;&lt;/font&gt;&lt;/font&gt;&lt;/font&gt;&lt;/font&gt;&lt;/div&gt;- username: String &lt;/font&gt;&lt;/font&gt;&lt;/font&gt;&lt;/font&gt;&lt;/font&gt;&lt;/font&gt;&lt;br&gt;&lt;font style=&quot;vertical-align: inherit;&quot;&gt;&lt;font style=&quot;vertical-align: inherit;&quot;&gt;&lt;font style=&quot;vertical-align: inherit;&quot;&gt;&lt;font style=&quot;vertical-align: inherit;&quot;&gt;&lt;font style=&quot;vertical-align: inherit;&quot;&gt;&lt;font style=&quot;vertical-align: inherit;&quot;&gt;- hashedPassword: String&lt;/font&gt;&lt;/font&gt;&lt;/font&gt;&lt;/font&gt;&lt;/font&gt;&lt;/font&gt;&lt;div&gt;&lt;font style=&quot;vertical-align: inherit;&quot;&gt;&lt;font style=&quot;vertical-align: inherit;&quot;&gt;&lt;font style=&quot;vertical-align: inherit;&quot;&gt;&lt;font style=&quot;vertical-align: inherit;&quot;&gt;&lt;font style=&quot;vertical-align: inherit;&quot;&gt;&lt;font style=&quot;vertical-align: inherit;&quot;&gt;- birthYear: int&lt;/font&gt;&lt;/font&gt;&lt;/font&gt;&lt;/font&gt;&lt;/font&gt;&lt;/font&gt;&lt;/div&gt;" style="text;html=1;strokeColor=none;fillColor=none;align=left;verticalAlign=top;spacingLeft=10;spacingTop=5;" vertex="1" parent="6Eb1eWpuqPmglA29qz08-20">
          <mxGeometry y="9.658143236074267" width="290" height="129.23076923076925" as="geometry" />
        </mxCell>
        <mxCell id="6Eb1eWpuqPmglA29qz08-22" value="&lt;div&gt;+ User(username: String,&lt;/div&gt;&lt;div&gt;&amp;nbsp; &amp;nbsp; &amp;nbsp; &amp;nbsp; password: String,&lt;/div&gt;&lt;div&gt;&amp;nbsp; &amp;nbsp; &amp;nbsp; &amp;nbsp; birthYear: int)&lt;/div&gt;&lt;div&gt;+ getUsername(): String&lt;/div&gt;&lt;div&gt;+ getPassword(): String&lt;/div&gt;&lt;div&gt;+ getBirthYear(): int&lt;/div&gt;&lt;div&gt;+ getAge(): int&lt;/div&gt;&lt;div&gt;+ checkPassword(inputPassword: String): boolean&lt;/div&gt;" style="text;html=1;strokeColor=none;fillColor=none;align=left;verticalAlign=top;spacingLeft=10;spacingTop=5;" vertex="1" parent="6Eb1eWpuqPmglA29qz08-20">
          <mxGeometry y="96.92314444176519" width="290" height="86.15384615384615" as="geometry" />
        </mxCell>
        <mxCell id="6Eb1eWpuqPmglA29qz08-83" style="edgeStyle=orthogonalEdgeStyle;rounded=0;orthogonalLoop=1;jettySize=auto;html=1;exitX=0;exitY=0.75;exitDx=0;exitDy=0;entryX=1;entryY=0.25;entryDx=0;entryDy=0;fontFamily=Helvetica;fontSize=12;fontColor=default;" edge="1" parent="1" source="6Eb1eWpuqPmglA29qz08-28" target="6Eb1eWpuqPmglA29qz08-49">
          <mxGeometry relative="1" as="geometry" />
        </mxCell>
        <mxCell id="6Eb1eWpuqPmglA29qz08-104" value="Uses" style="edgeLabel;html=1;align=center;verticalAlign=middle;resizable=0;points=[];rounded=1;strokeColor=#D6B656;fontFamily=Helvetica;fontSize=12;fontColor=default;fillColor=#FFF2CC;" vertex="1" connectable="0" parent="6Eb1eWpuqPmglA29qz08-83">
          <mxGeometry x="-0.3127" y="2" relative="1" as="geometry">
            <mxPoint as="offset" />
          </mxGeometry>
        </mxCell>
        <mxCell id="6Eb1eWpuqPmglA29qz08-28" value="" style="rounded=1;whiteSpace=wrap;html=1;fillColor=#F8CECC;strokeColor=#B85450;" vertex="1" parent="1">
          <mxGeometry x="523" y="-405.81" width="237" height="140" as="geometry" />
        </mxCell>
        <mxCell id="6Eb1eWpuqPmglA29qz08-29" value="&lt;div&gt;&lt;font style=&quot;vertical-align: inherit;&quot;&gt;&lt;font style=&quot;vertical-align: inherit;&quot;&gt;&lt;font style=&quot;vertical-align: inherit;&quot;&gt;&lt;font style=&quot;vertical-align: inherit;&quot;&gt;&lt;font style=&quot;vertical-align: inherit;&quot;&gt;&lt;font style=&quot;vertical-align: inherit;&quot;&gt;MediaIterator&lt;/font&gt;&lt;/font&gt;&lt;/font&gt;&lt;/font&gt;&lt;/font&gt;&lt;/font&gt;&lt;/div&gt;&lt;div&gt;&lt;br&gt;&lt;/div&gt;- mediaList: List&amp;lt;Media&amp;gt;&lt;div&gt;- position: int&lt;/div&gt;&lt;div&gt;&lt;br&gt;&lt;/div&gt;&lt;div&gt;+ MediaIterator(List&amp;lt;Media&amp;gt;)&lt;/div&gt;&lt;div&gt;+ hasNext(): boolean&lt;/div&gt;&lt;div&gt;+ next(): Media&lt;/div&gt;&lt;div&gt;&lt;br&gt;&lt;/div&gt;" style="text;html=1;strokeColor=none;fillColor=none;align=left;verticalAlign=top;spacingLeft=10;spacingTop=5;" vertex="1" parent="6Eb1eWpuqPmglA29qz08-28">
          <mxGeometry y="4.8290716180371325" width="236.99999999999997" height="53.84615384615383" as="geometry" />
        </mxCell>
        <mxCell id="6Eb1eWpuqPmglA29qz08-100" style="edgeStyle=orthogonalEdgeStyle;rounded=0;orthogonalLoop=1;jettySize=auto;html=1;exitX=0.552;exitY=1.021;exitDx=0;exitDy=0;fontFamily=Helvetica;fontSize=12;fontColor=default;entryX=0.5;entryY=0;entryDx=0;entryDy=0;exitPerimeter=0;" edge="1" parent="1" source="6Eb1eWpuqPmglA29qz08-38" target="6Eb1eWpuqPmglA29qz08-13">
          <mxGeometry relative="1" as="geometry">
            <mxPoint x="220" y="-500" as="targetPoint" />
          </mxGeometry>
        </mxCell>
        <mxCell id="6Eb1eWpuqPmglA29qz08-38" value="" style="rounded=1;whiteSpace=wrap;html=1;fillColor=#E1D5E7;strokeColor=#6A1B9A;" vertex="1" parent="1">
          <mxGeometry x="10" y="-624" width="190" height="80" as="geometry" />
        </mxCell>
        <mxCell id="6Eb1eWpuqPmglA29qz08-39" value="App&lt;div&gt;&lt;br&gt;&lt;/div&gt;&lt;div&gt;+ Main(String [] args): void&lt;/div&gt;" style="text;html=1;strokeColor=none;fillColor=none;align=left;verticalAlign=top;spacingLeft=10;spacingTop=5;" vertex="1" parent="6Eb1eWpuqPmglA29qz08-38">
          <mxGeometry y="2.856190476190477" width="190" height="35.555555555555564" as="geometry" />
        </mxCell>
        <mxCell id="6Eb1eWpuqPmglA29qz08-44" value="&lt;div style=&quot;&quot;&gt;&lt;br&gt;&lt;/div&gt;" style="rounded=1;whiteSpace=wrap;html=1;fillColor=light-dark(#FFF2CC,#000033);strokeColor=light-dark(#D6B656,#0000FF);align=center;" vertex="1" parent="1">
          <mxGeometry x="-490" y="-370" width="410" height="80" as="geometry" />
        </mxCell>
        <mxCell id="6Eb1eWpuqPmglA29qz08-45" value="&lt;span style=&quot;white-space: pre;&quot;&gt;&#x9;&lt;/span&gt;PasswordPrompt&lt;br&gt;&lt;div&gt;&lt;font style=&quot;vertical-align: inherit;&quot;&gt;&lt;font style=&quot;vertical-align: inherit;&quot;&gt;&lt;font style=&quot;vertical-align: inherit;&quot;&gt;&lt;font style=&quot;vertical-align: inherit;&quot;&gt;&lt;br&gt;&lt;/font&gt;&lt;/font&gt;&lt;/font&gt;&lt;/font&gt;&lt;/div&gt;&lt;div&gt;&lt;span style=&quot;white-space: pre;&quot;&gt;&#x9;&lt;/span&gt;+ getPassword(prompt: String, scanner: Scanner): String&lt;/div&gt;" style="text;html=1;strokeColor=none;fillColor=none;align=left;verticalAlign=top;spacingLeft=10;spacingTop=5;" vertex="1" parent="6Eb1eWpuqPmglA29qz08-44">
          <mxGeometry y="2.759469496021219" width="410.00000000000006" height="24.61538461538461" as="geometry" />
        </mxCell>
        <mxCell id="6Eb1eWpuqPmglA29qz08-112" style="edgeStyle=orthogonalEdgeStyle;rounded=0;orthogonalLoop=1;jettySize=auto;html=1;exitX=1;exitY=0.5;exitDx=0;exitDy=0;entryX=0.5;entryY=1;entryDx=0;entryDy=0;fontFamily=Helvetica;fontSize=12;fontColor=default;dashed=1;endArrow=blockThin;endFill=0;" edge="1" parent="1" source="6Eb1eWpuqPmglA29qz08-46" target="6Eb1eWpuqPmglA29qz08-7">
          <mxGeometry relative="1" as="geometry" />
        </mxCell>
        <mxCell id="6Eb1eWpuqPmglA29qz08-113" value="Creates" style="edgeLabel;html=1;align=center;verticalAlign=middle;resizable=0;points=[];rounded=1;strokeColor=#D6B656;fontFamily=Helvetica;fontSize=12;fontColor=default;fillColor=#FFF2CC;" vertex="1" connectable="0" parent="6Eb1eWpuqPmglA29qz08-112">
          <mxGeometry x="-0.3304" y="7" relative="1" as="geometry">
            <mxPoint as="offset" />
          </mxGeometry>
        </mxCell>
        <mxCell id="6Eb1eWpuqPmglA29qz08-46" value="&lt;div style=&quot;&quot;&gt;&lt;br&gt;&lt;/div&gt;" style="rounded=1;whiteSpace=wrap;html=1;fillColor=#FFF2CC;strokeColor=#D6B656;align=center;" vertex="1" parent="1">
          <mxGeometry x="210" y="640" width="180" height="200.71" as="geometry" />
        </mxCell>
        <mxCell id="6Eb1eWpuqPmglA29qz08-47" value="MediaFactory&lt;div&gt;&lt;br&gt;&lt;div&gt;&amp;nbsp;+ createMedia(&lt;/div&gt;&lt;/div&gt;&lt;div&gt;type: String,&lt;/div&gt;&lt;div&gt;title: String,&lt;/div&gt;&lt;div&gt;creator: String,&lt;/div&gt;&lt;div&gt;year: int,&lt;/div&gt;&lt;div&gt;genre: String,&lt;/div&gt;&lt;div&gt;album: String,&lt;/div&gt;&lt;div&gt;console: String,&lt;/div&gt;&lt;div&gt;prohibition: String): Media&lt;/div&gt;&lt;div&gt;&lt;br&gt;&lt;/div&gt;&lt;div&gt;&lt;br&gt;&lt;/div&gt;&lt;div&gt;&lt;br&gt;&lt;/div&gt;" style="text;html=1;strokeColor=none;fillColor=none;align=left;verticalAlign=top;spacingLeft=10;spacingTop=5;" vertex="1" parent="6Eb1eWpuqPmglA29qz08-46">
          <mxGeometry y="6.923164031830237" width="180.00000000000003" height="61.75692307692307" as="geometry" />
        </mxCell>
        <mxCell id="6Eb1eWpuqPmglA29qz08-48" value="" style="rounded=1;whiteSpace=wrap;html=1;fillColor=#E1D5E7;strokeColor=#6A1B9A;" vertex="1" parent="1">
          <mxGeometry y="-190" width="270" height="280" as="geometry" />
        </mxCell>
        <mxCell id="6Eb1eWpuqPmglA29qz08-49" value="&lt;div&gt;&lt;font style=&quot;vertical-align: inherit;&quot;&gt;&lt;font style=&quot;vertical-align: inherit;&quot;&gt;&lt;font style=&quot;vertical-align: inherit;&quot;&gt;&lt;font style=&quot;vertical-align: inherit;&quot;&gt;&lt;font style=&quot;vertical-align: inherit;&quot;&gt;&lt;font style=&quot;vertical-align: inherit;&quot;&gt;&lt;span style=&quot;white-space: pre;&quot;&gt;&#x9;&lt;/span&gt;&lt;span style=&quot;white-space: pre;&quot;&gt;&#x9;&lt;span style=&quot;white-space: pre;&quot;&gt;&#x9;&lt;/span&gt;&lt;/span&gt;&lt;span style=&quot;white-space: pre;&quot;&gt;&#x9;&lt;/span&gt;Interface&lt;br&gt;&lt;/font&gt;&lt;/font&gt;&lt;/font&gt;&lt;/font&gt;&lt;/font&gt;&lt;/font&gt;&lt;/div&gt;&lt;font style=&quot;vertical-align: inherit;&quot;&gt;&lt;font style=&quot;vertical-align: inherit;&quot;&gt;&lt;font style=&quot;vertical-align: inherit;&quot;&gt;&lt;font style=&quot;vertical-align: inherit;&quot;&gt;&lt;font style=&quot;vertical-align: inherit;&quot;&gt;&lt;font style=&quot;vertical-align: inherit;&quot;&gt;Media&lt;/font&gt;&lt;/font&gt;&lt;/font&gt;&lt;/font&gt;&lt;/font&gt;&lt;/font&gt;&lt;div&gt;&lt;font style=&quot;vertical-align: inherit;&quot;&gt;&lt;font style=&quot;vertical-align: inherit;&quot;&gt;&lt;font style=&quot;vertical-align: inherit;&quot;&gt;&lt;font style=&quot;vertical-align: inherit;&quot;&gt;&lt;font style=&quot;vertical-align: inherit;&quot;&gt;&lt;font style=&quot;vertical-align: inherit;&quot;&gt;&lt;br&gt;&lt;/font&gt;&lt;/font&gt;&lt;/font&gt;&lt;/font&gt;&lt;/font&gt;&lt;/font&gt;&lt;/div&gt;&lt;div&gt;&lt;font style=&quot;vertical-align: inherit;&quot;&gt;&lt;font style=&quot;vertical-align: inherit;&quot;&gt;&lt;font style=&quot;vertical-align: inherit;&quot;&gt;&lt;font style=&quot;vertical-align: inherit;&quot;&gt;&lt;font style=&quot;vertical-align: inherit;&quot;&gt;&lt;font style=&quot;vertical-align: inherit;&quot;&gt;- title: String &lt;/font&gt;&lt;/font&gt;&lt;/font&gt;&lt;/font&gt;&lt;/font&gt;&lt;/font&gt;&lt;br&gt;&lt;font style=&quot;vertical-align: inherit;&quot;&gt;&lt;font style=&quot;vertical-align: inherit;&quot;&gt;&lt;font style=&quot;vertical-align: inherit;&quot;&gt;&lt;font style=&quot;vertical-align: inherit;&quot;&gt;&lt;font style=&quot;vertical-align: inherit;&quot;&gt;&lt;font style=&quot;vertical-align: inherit;&quot;&gt;- author: String &lt;/font&gt;&lt;/font&gt;&lt;/font&gt;&lt;/font&gt;&lt;/font&gt;&lt;/font&gt;&lt;br&gt;&lt;font style=&quot;vertical-align: inherit;&quot;&gt;&lt;font style=&quot;vertical-align: inherit;&quot;&gt;&lt;font style=&quot;vertical-align: inherit;&quot;&gt;&lt;font style=&quot;vertical-align: inherit;&quot;&gt;&lt;font style=&quot;vertical-align: inherit;&quot;&gt;&lt;font style=&quot;vertical-align: inherit;&quot;&gt;- year: int &lt;/font&gt;&lt;/font&gt;&lt;/font&gt;&lt;/font&gt;&lt;/font&gt;&lt;/font&gt;&lt;br&gt;&lt;font style=&quot;vertical-align: inherit;&quot;&gt;&lt;font style=&quot;vertical-align: inherit;&quot;&gt;&lt;font style=&quot;vertical-align: inherit;&quot;&gt;&lt;font style=&quot;vertical-align: inherit;&quot;&gt;&lt;font style=&quot;vertical-align: inherit;&quot;&gt;&lt;font style=&quot;vertical-align: inherit;&quot;&gt;- genre: String &lt;/font&gt;&lt;/font&gt;&lt;/font&gt;&lt;/font&gt;&lt;/font&gt;&lt;/font&gt;&lt;br&gt;- prohibition: String&lt;/div&gt;" style="text;html=1;strokeColor=none;fillColor=none;align=left;verticalAlign=top;spacingLeft=10;spacingTop=5;" vertex="1" parent="6Eb1eWpuqPmglA29qz08-48">
          <mxGeometry y="9.99666666666667" width="270" height="124.44444444444446" as="geometry" />
        </mxCell>
        <mxCell id="6Eb1eWpuqPmglA29qz08-50" value="+ getTitle(): String&lt;br&gt;+ getAuthor(): String&lt;br&gt;+ getYear(): int&lt;br&gt;+ getGenre(): String&lt;div&gt;+ getProhibition(): String&lt;br&gt;&lt;/div&gt;" style="text;html=1;strokeColor=none;fillColor=none;align=left;verticalAlign=top;spacingLeft=10;spacingTop=5;" vertex="1" parent="6Eb1eWpuqPmglA29qz08-48">
          <mxGeometry y="134.44111111111113" width="270" height="108.88888888888889" as="geometry" />
        </mxCell>
        <mxCell id="6Eb1eWpuqPmglA29qz08-64" value="&lt;div style=&quot;&quot;&gt;&lt;br&gt;&lt;/div&gt;" style="rounded=1;whiteSpace=wrap;html=1;fillColor=light-dark(#FFF2CC,#000033);strokeColor=light-dark(#D6B656,#0000FF);align=center;" vertex="1" parent="1">
          <mxGeometry x="-490" y="-462.41" width="410" height="80" as="geometry" />
        </mxCell>
        <mxCell id="6Eb1eWpuqPmglA29qz08-65" value="&lt;span style=&quot;white-space: pre;&quot;&gt;&#x9;&lt;/span&gt;PasswordHasher&lt;br&gt;&lt;div&gt;&lt;font style=&quot;vertical-align: inherit;&quot;&gt;&lt;font style=&quot;vertical-align: inherit;&quot;&gt;&lt;font style=&quot;vertical-align: inherit;&quot;&gt;&lt;font style=&quot;vertical-align: inherit;&quot;&gt;&lt;br&gt;&lt;/font&gt;&lt;/font&gt;&lt;/font&gt;&lt;/font&gt;&lt;/div&gt;&lt;div&gt;&lt;span style=&quot;white-space: pre;&quot;&gt;&#x9;&lt;/span&gt;+ hashPassword(password:String): String&lt;/div&gt;" style="text;html=1;strokeColor=none;fillColor=none;align=left;verticalAlign=top;spacingLeft=10;spacingTop=5;" vertex="1" parent="6Eb1eWpuqPmglA29qz08-64">
          <mxGeometry y="2.759469496021219" width="410.00000000000006" height="24.61538461538461" as="geometry" />
        </mxCell>
        <mxCell id="6Eb1eWpuqPmglA29qz08-66" value="&lt;blockquote style=&quot;margin: 0 0 0 40px; border: none; padding: 0px;&quot;&gt;&lt;div style=&quot;&quot;&gt;MediaExporter&lt;/div&gt;&lt;div style=&quot;&quot;&gt;&lt;br&gt;&lt;/div&gt;&lt;div style=&quot;&quot;&gt;&lt;div&gt;&amp;nbsp;+ exportToCSV(mediaList:&amp;nbsp;&lt;span style=&quot;background-color: transparent; color: light-dark(rgb(0, 0, 0), rgb(255, 255, 255));&quot;&gt;List&amp;lt;Media&amp;gt;): boolean&lt;/span&gt;&lt;/div&gt;&lt;/div&gt;&lt;/blockquote&gt;" style="rounded=1;whiteSpace=wrap;html=1;fillColor=light-dark(#FFF2CC,#000033);strokeColor=light-dark(#D6B656,#0000FF);align=left;verticalAlign=middle;fontFamily=Helvetica;fontSize=12;fontColor=default;" vertex="1" parent="1">
          <mxGeometry x="-490" y="-190" width="370" height="80" as="geometry" />
        </mxCell>
        <mxCell id="6Eb1eWpuqPmglA29qz08-73" style="edgeStyle=orthogonalEdgeStyle;rounded=0;orthogonalLoop=1;jettySize=auto;html=1;exitX=0.25;exitY=0;exitDx=0;exitDy=0;entryX=0.554;entryY=1.002;entryDx=0;entryDy=0;entryPerimeter=0;fontFamily=Helvetica;fontSize=12;fontColor=default;dashed=1;endArrow=block;endFill=0;" edge="1" parent="1" source="6Eb1eWpuqPmglA29qz08-4" target="6Eb1eWpuqPmglA29qz08-48">
          <mxGeometry relative="1" as="geometry" />
        </mxCell>
        <mxCell id="6Eb1eWpuqPmglA29qz08-74" style="edgeStyle=orthogonalEdgeStyle;rounded=0;orthogonalLoop=1;jettySize=auto;html=1;exitX=0.25;exitY=0;exitDx=0;exitDy=0;entryX=0.926;entryY=1;entryDx=0;entryDy=0;entryPerimeter=0;fontFamily=Helvetica;fontSize=12;fontColor=default;dashed=1;endArrow=block;endFill=0;" edge="1" parent="1" source="6Eb1eWpuqPmglA29qz08-11" target="6Eb1eWpuqPmglA29qz08-48">
          <mxGeometry relative="1" as="geometry" />
        </mxCell>
        <mxCell id="6Eb1eWpuqPmglA29qz08-75" style="edgeStyle=orthogonalEdgeStyle;rounded=0;orthogonalLoop=1;jettySize=auto;html=1;exitX=0.25;exitY=0;exitDx=0;exitDy=0;entryX=1;entryY=0.75;entryDx=0;entryDy=0;fontFamily=Helvetica;fontSize=12;fontColor=default;dashed=1;endArrow=block;endFill=0;" edge="1" parent="1" source="6Eb1eWpuqPmglA29qz08-8" target="6Eb1eWpuqPmglA29qz08-50">
          <mxGeometry relative="1" as="geometry" />
        </mxCell>
        <mxCell id="6Eb1eWpuqPmglA29qz08-101" style="edgeStyle=orthogonalEdgeStyle;rounded=0;orthogonalLoop=1;jettySize=auto;html=1;exitX=0.5;exitY=1;exitDx=0;exitDy=0;entryX=0.425;entryY=-0.007;entryDx=0;entryDy=0;entryPerimeter=0;fontFamily=Helvetica;fontSize=12;fontColor=default;" edge="1" parent="1" source="6Eb1eWpuqPmglA29qz08-13" target="6Eb1eWpuqPmglA29qz08-48">
          <mxGeometry relative="1" as="geometry" />
        </mxCell>
        <mxCell id="6Eb1eWpuqPmglA29qz08-102" style="edgeStyle=orthogonalEdgeStyle;rounded=0;orthogonalLoop=1;jettySize=auto;html=1;entryX=1.004;entryY=0.889;entryDx=0;entryDy=0;entryPerimeter=0;fontFamily=Helvetica;fontSize=12;fontColor=default;" edge="1" parent="1" target="6Eb1eWpuqPmglA29qz08-49">
          <mxGeometry relative="1" as="geometry">
            <mxPoint x="550" y="-70" as="sourcePoint" />
          </mxGeometry>
        </mxCell>
        <mxCell id="6Eb1eWpuqPmglA29qz08-103" value="Uses" style="edgeLabel;html=1;align=center;verticalAlign=middle;resizable=0;points=[];rounded=1;strokeColor=#D6B656;fontFamily=Helvetica;fontSize=12;fontColor=default;fillColor=#FFF2CC;" vertex="1" connectable="0" parent="6Eb1eWpuqPmglA29qz08-102">
          <mxGeometry x="-0.5677" y="4" relative="1" as="geometry">
            <mxPoint as="offset" />
          </mxGeometry>
        </mxCell>
        <mxCell id="6Eb1eWpuqPmglA29qz08-106" style="edgeStyle=orthogonalEdgeStyle;rounded=0;orthogonalLoop=1;jettySize=auto;html=1;exitX=0;exitY=0.5;exitDx=0;exitDy=0;entryX=0.179;entryY=1.01;entryDx=0;entryDy=0;entryPerimeter=0;fontFamily=Helvetica;fontSize=12;fontColor=default;dashed=1;endArrow=blockThin;endFill=0;" edge="1" parent="1" source="6Eb1eWpuqPmglA29qz08-46" target="6Eb1eWpuqPmglA29qz08-1">
          <mxGeometry relative="1" as="geometry" />
        </mxCell>
        <mxCell id="6Eb1eWpuqPmglA29qz08-107" value="Creates" style="edgeLabel;html=1;align=center;verticalAlign=middle;resizable=0;points=[];rounded=1;strokeColor=#D6B656;fontFamily=Helvetica;fontSize=12;fontColor=default;fillColor=#FFF2CC;" vertex="1" connectable="0" parent="6Eb1eWpuqPmglA29qz08-106">
          <mxGeometry x="-0.4022" y="1" relative="1" as="geometry">
            <mxPoint as="offset" />
          </mxGeometry>
        </mxCell>
        <mxCell id="6Eb1eWpuqPmglA29qz08-108" style="edgeStyle=orthogonalEdgeStyle;rounded=0;orthogonalLoop=1;jettySize=auto;html=1;exitX=0;exitY=0.25;exitDx=0;exitDy=0;entryX=0.5;entryY=1;entryDx=0;entryDy=0;fontFamily=Helvetica;fontSize=12;fontColor=default;dashed=1;endArrow=blockThin;endFill=0;" edge="1" parent="1" source="6Eb1eWpuqPmglA29qz08-47" target="6Eb1eWpuqPmglA29qz08-4">
          <mxGeometry relative="1" as="geometry" />
        </mxCell>
        <mxCell id="6Eb1eWpuqPmglA29qz08-109" value="Creates" style="edgeLabel;html=1;align=center;verticalAlign=middle;resizable=0;points=[];rounded=1;strokeColor=#D6B656;fontFamily=Helvetica;fontSize=12;fontColor=default;fillColor=#FFF2CC;" vertex="1" connectable="0" parent="6Eb1eWpuqPmglA29qz08-108">
          <mxGeometry x="0.0702" y="1" relative="1" as="geometry">
            <mxPoint as="offset" />
          </mxGeometry>
        </mxCell>
        <mxCell id="6Eb1eWpuqPmglA29qz08-110" style="edgeStyle=orthogonalEdgeStyle;rounded=0;orthogonalLoop=1;jettySize=auto;html=1;exitX=1;exitY=0.25;exitDx=0;exitDy=0;entryX=0.5;entryY=1;entryDx=0;entryDy=0;fontFamily=Helvetica;fontSize=12;fontColor=default;dashed=1;endArrow=blockThin;endFill=0;" edge="1" parent="1" source="6Eb1eWpuqPmglA29qz08-47" target="6Eb1eWpuqPmglA29qz08-10">
          <mxGeometry relative="1" as="geometry" />
        </mxCell>
        <mxCell id="6Eb1eWpuqPmglA29qz08-111" value="Creates" style="edgeLabel;html=1;align=center;verticalAlign=middle;resizable=0;points=[];rounded=1;strokeColor=#D6B656;fontFamily=Helvetica;fontSize=12;fontColor=default;fillColor=#FFF2CC;" vertex="1" connectable="0" parent="6Eb1eWpuqPmglA29qz08-110">
          <mxGeometry x="-0.0002" y="2" relative="1" as="geometry">
            <mxPoint as="offset" />
          </mxGeometry>
        </mxCell>
        <mxCell id="6Eb1eWpuqPmglA29qz08-114" value="&lt;div style=&quot;&quot;&gt;&lt;br&gt;&lt;/div&gt;" style="rounded=1;whiteSpace=wrap;html=1;fillColor=light-dark(#FFF2CC,#000033);strokeColor=light-dark(#D6B656,#0000FF);align=center;" vertex="1" parent="1">
          <mxGeometry x="-490" y="-280.41" width="370" height="80" as="geometry" />
        </mxCell>
        <mxCell id="6Eb1eWpuqPmglA29qz08-115" value="&lt;span style=&quot;white-space: pre;&quot;&gt;&#x9;&lt;/span&gt;AgeLoader&lt;div&gt;&lt;br&gt;&lt;/div&gt;&lt;div&gt;&lt;span style=&quot;white-space: pre;&quot;&gt;&#x9;&lt;/span&gt;+ loadAgesFromFile(filePath:String): Map&amp;lt;String, Integer&amp;gt;&lt;/div&gt;" style="text;html=1;strokeColor=none;fillColor=none;align=left;verticalAlign=top;spacingLeft=10;spacingTop=5;" vertex="1" parent="6Eb1eWpuqPmglA29qz08-114">
          <mxGeometry y="1.47171706454465" width="370.00000000000006" height="13.128205128205124" as="geometry" />
        </mxCell>
        <mxCell id="6Eb1eWpuqPmglA29qz08-116" value="&amp;lt;&amp;lt; Utilities &amp;gt;&amp;gt;" style="text;html=1;align=center;verticalAlign=middle;resizable=0;points=[];autosize=1;strokeColor=none;fillColor=none;fontFamily=Helvetica;fontSize=12;fontColor=default;" vertex="1" parent="1">
          <mxGeometry x="-355" y="-502" width="100" height="30" as="geometry" />
        </mxCell>
        <mxCell id="6Eb1eWpuqPmglA29qz08-121" style="edgeStyle=orthogonalEdgeStyle;rounded=0;orthogonalLoop=1;jettySize=auto;html=1;exitX=0;exitY=0.5;exitDx=0;exitDy=0;entryX=0;entryY=0.5;entryDx=0;entryDy=0;fontFamily=Helvetica;fontSize=12;fontColor=default;" edge="1" parent="1" source="6Eb1eWpuqPmglA29qz08-117" target="6Eb1eWpuqPmglA29qz08-119">
          <mxGeometry relative="1" as="geometry" />
        </mxCell>
        <mxCell id="6Eb1eWpuqPmglA29qz08-122" value="Uses" style="edgeLabel;html=1;align=center;verticalAlign=middle;resizable=0;points=[];rounded=1;strokeColor=#D6B656;fontFamily=Helvetica;fontSize=12;fontColor=default;fillColor=#FFF2CC;" vertex="1" connectable="0" parent="6Eb1eWpuqPmglA29qz08-121">
          <mxGeometry x="0.032" y="-1" relative="1" as="geometry">
            <mxPoint as="offset" />
          </mxGeometry>
        </mxCell>
        <mxCell id="6Eb1eWpuqPmglA29qz08-124" style="edgeStyle=orthogonalEdgeStyle;rounded=0;orthogonalLoop=1;jettySize=auto;html=1;exitX=0;exitY=0.25;exitDx=0;exitDy=0;entryX=0.5;entryY=1;entryDx=0;entryDy=0;fontFamily=Helvetica;fontSize=12;fontColor=default;" edge="1" parent="1" source="6Eb1eWpuqPmglA29qz08-117" target="6Eb1eWpuqPmglA29qz08-20">
          <mxGeometry relative="1" as="geometry" />
        </mxCell>
        <mxCell id="6Eb1eWpuqPmglA29qz08-125" value="Creates" style="edgeLabel;html=1;align=center;verticalAlign=middle;resizable=0;points=[];rounded=1;strokeColor=#D6B656;fontFamily=Helvetica;fontSize=12;fontColor=default;fillColor=#FFF2CC;" vertex="1" connectable="0" parent="6Eb1eWpuqPmglA29qz08-124">
          <mxGeometry x="-0.12" y="2" relative="1" as="geometry">
            <mxPoint as="offset" />
          </mxGeometry>
        </mxCell>
        <mxCell id="6Eb1eWpuqPmglA29qz08-117" value="&lt;div style=&quot;&quot;&gt;&lt;br&gt;&lt;/div&gt;" style="rounded=1;whiteSpace=wrap;html=1;fillColor=light-dark(#FFF2CC,#000033);strokeColor=light-dark(#D6B656,#0000FF);align=left;verticalAlign=middle;fontFamily=Helvetica;fontSize=12;fontColor=default;" vertex="1" parent="1">
          <mxGeometry x="-490" y="-100" width="370" height="80" as="geometry" />
        </mxCell>
        <mxCell id="6Eb1eWpuqPmglA29qz08-118" value="&lt;span style=&quot;white-space: pre;&quot;&gt;&#x9;&lt;/span&gt;UserLoader&lt;br&gt;&lt;div&gt;&lt;font style=&quot;vertical-align: inherit;&quot;&gt;&lt;font style=&quot;vertical-align: inherit;&quot;&gt;&lt;font style=&quot;vertical-align: inherit;&quot;&gt;&lt;font style=&quot;vertical-align: inherit;&quot;&gt;&lt;br&gt;&lt;/font&gt;&lt;/font&gt;&lt;/font&gt;&lt;/font&gt;&lt;/div&gt;&lt;div&gt;&lt;span style=&quot;white-space: pre;&quot;&gt;&#x9;&lt;/span&gt;+loadUsers(filePath: String): Map&amp;lt;String, User&amp;gt;&lt;/div&gt;" style="text;html=1;strokeColor=none;fillColor=none;align=left;verticalAlign=top;spacingLeft=10;spacingTop=5;fontFamily=Helvetica;fontSize=12;fontColor=default;" vertex="1" parent="6Eb1eWpuqPmglA29qz08-117">
          <mxGeometry y="1.47171706454465" width="370.0000000000001" height="13.128205128205124" as="geometry" />
        </mxCell>
        <mxCell id="6Eb1eWpuqPmglA29qz08-119" value="&lt;div style=&quot;&quot;&gt;&lt;br&gt;&lt;/div&gt;" style="rounded=1;whiteSpace=wrap;html=1;fillColor=light-dark(#FFF2CC,#000033);strokeColor=light-dark(#D6B656,#0000FF);align=left;verticalAlign=middle;fontFamily=Helvetica;fontSize=12;fontColor=default;" vertex="1" parent="1">
          <mxGeometry x="-490" y="-10" width="370" height="80" as="geometry" />
        </mxCell>
        <mxCell id="6Eb1eWpuqPmglA29qz08-120" value="&lt;span style=&quot;white-space: pre;&quot;&gt;&#x9;&lt;/span&gt;AgeLoader&lt;br&gt;&lt;div&gt;&lt;font style=&quot;vertical-align: inherit;&quot;&gt;&lt;font style=&quot;vertical-align: inherit;&quot;&gt;&lt;font style=&quot;vertical-align: inherit;&quot;&gt;&lt;font style=&quot;vertical-align: inherit;&quot;&gt;&lt;br&gt;&lt;/font&gt;&lt;/font&gt;&lt;/font&gt;&lt;/font&gt;&lt;/div&gt;&lt;div&gt;&lt;span style=&quot;white-space: pre;&quot;&gt;&#x9;&lt;/span&gt;+loadAgesFromFile(filePath: String): Map&amp;lt;String, Integer&amp;gt;&lt;/div&gt;" style="text;html=1;strokeColor=none;fillColor=none;align=left;verticalAlign=top;spacingLeft=10;spacingTop=5;fontFamily=Helvetica;fontSize=12;fontColor=default;" vertex="1" parent="6Eb1eWpuqPmglA29qz08-119">
          <mxGeometry y="1.47171706454465" width="370.0000000000001" height="13.128205128205124" as="geometry" />
        </mxCell>
        <mxCell id="6Eb1eWpuqPmglA29qz08-130" value="" style="edgeStyle=orthogonalEdgeStyle;rounded=0;orthogonalLoop=1;jettySize=auto;html=1;fontFamily=Helvetica;fontSize=12;fontColor=default;entryX=0.446;entryY=-0.009;entryDx=0;entryDy=0;entryPerimeter=0;" edge="1" parent="1" source="6Eb1eWpuqPmglA29qz08-128" target="6Eb1eWpuqPmglA29qz08-20">
          <mxGeometry relative="1" as="geometry" />
        </mxCell>
        <mxCell id="6Eb1eWpuqPmglA29qz08-128" value="&quot;hash format&quot;" style="text;html=1;align=center;verticalAlign=middle;resizable=0;points=[];autosize=1;strokeColor=none;fillColor=none;fontFamily=Helvetica;fontSize=12;fontColor=default;" vertex="1" parent="1">
          <mxGeometry x="-730" y="-532" width="100" height="30" as="geometry" />
        </mxCell>
        <mxCell id="6Eb1eWpuqPmglA29qz08-129" style="edgeStyle=orthogonalEdgeStyle;rounded=0;orthogonalLoop=1;jettySize=auto;html=1;exitX=0;exitY=0;exitDx=0;exitDy=0;entryX=1.006;entryY=0.403;entryDx=0;entryDy=0;entryPerimeter=0;fontFamily=Helvetica;fontSize=12;fontColor=default;" edge="1" parent="1" source="6Eb1eWpuqPmglA29qz08-65" target="6Eb1eWpuqPmglA29qz08-128">
          <mxGeometry relative="1" as="geometry" />
        </mxCell>
        <mxCell id="6Eb1eWpuqPmglA29qz08-132" value="sottotipi polimorfici" style="text;html=1;align=center;verticalAlign=middle;resizable=0;points=[];autosize=1;strokeColor=none;fillColor=none;fontFamily=Helvetica;fontSize=12;fontColor=default;" vertex="1" parent="1">
          <mxGeometry x="210" y="170" width="120" height="30" as="geometry" />
        </mxCell>
      </root>
    </mxGraphModel>
  </diagram>
</mxfile>
